<?xml version="1.0" encoding="UTF-8" standalone="no"?>
<svg width="131px" height="25px" viewBox="0 0 131 25" version="1.1" xmlns="http://www.w3.org/2000/svg" xmlns:xlink="http://www.w3.org/1999/xlink">
    <!-- Generator: Sketch 41.2 (35397) - http://www.bohemiancoding.com/sketch -->
    <title>CheggUX</title>
    <desc>Created with Sketch.</desc>
    <defs></defs>
    <g id="Page-1" stroke="none" stroke-width="1" fill="none" fill-rule="evenodd">
        <g id="Wireframe" transform="translate(-490.000000, -2177.000000)" fill="#F07D00">
            <g id="CheggUX" transform="translate(490.000000, 2177.000000)">
                <path d="M107.709882,13.0525001 C107.709882,15.9507921 105.727282,17.8073791 102.904598,17.8073791 C100.081913,17.8073791 98.0573095,15.9507921 98.0573095,13.0525001 L98.0573095,0.52683834 L95.293431,0.52683834 L95.293431,13.0440993 C95.293431,17.4041385 98.3429382,20.2772279 102.82899,20.2772279 C107.306641,20.2772279 110.406553,17.4041385 110.406553,13.0356984 L110.406553,0.52683834 L107.709882,0.52683834 L107.709882,13.0525001 Z M112.775578,20 L115.951098,20 L121.411648,12.078002 L126.813392,20 L130.098123,20 L123.117019,9.86017855 L129.77049,0.52683834 L126.603371,0.52683834 L121.504057,7.76836783 L116.513954,0.52683834 L113.204021,0.52683834 L119.807086,9.9777904 L112.775578,20 Z" id="UX"></path>
                <g id="Group-2">
                    <path d="M87.244418,5.69418485 C85.8970167,5.68538508 84.826778,6.69442544 84.8177401,8.0033913 C84.8094553,9.31162386 85.8623714,10.3639297 87.1916968,10.3719962 C88.5232817,10.3815293 89.5761978,9.35488939 89.5837294,8.04592353 C89.6018053,6.73695766 88.557927,5.70225131 87.244418,5.69418485 L87.244418,5.69418485 Z M87.2097727,9.88507557 C86.1741792,9.88507557 85.400685,9.04689743 85.4089698,8.01145776 C85.4187608,6.98481786 86.2095777,6.1561728 87.2097727,6.16423926 C88.2453661,6.17303903 89.0015376,7.01928363 88.9924997,8.05398998 C88.984215,9.08062988 88.2190056,9.91074157 87.2097727,9.88507557 L87.2097727,9.88507557 Z" id="Fill-7"></path>
                    <path d="M87.7490344,8.10605529 L87.7490344,8.07158952 C88.0186653,7.98579176 88.235575,7.80612978 88.235575,7.52453712 C88.235575,7.29354315 88.140677,7.12194762 88.0013426,7.01928363 C87.8446856,6.90855318 87.6450985,6.83155519 87.2097727,6.83155519 C86.8271679,6.83155519 86.5228918,6.86602096 86.3150199,6.89095364 L86.2969441,9.22655941 L86.8362059,9.23535918 L86.8444906,8.3025835 L87.0967988,8.31138327 C87.3927903,8.31138327 87.5321247,8.43091349 87.5750547,8.67070723 C87.6450985,8.95303321 87.6797438,9.15762787 87.7490344,9.23535918 L88.3236946,9.24342563 C88.2792583,9.15762787 88.2190056,9.0300312 88.1489618,8.67070723 C88.0879559,8.36271527 87.9749821,8.17425351 87.7490344,8.10605529 L87.7490344,8.10605529 Z M87.1148746,7.92639331 L86.8618133,7.92639331 L86.8618133,7.25027761 C86.9228191,7.24221115 87.0184703,7.22461161 87.1578047,7.22461161 C87.4967262,7.23341138 87.6533832,7.37054114 87.6533832,7.58393557 C87.6533832,7.83252909 87.4093598,7.92639331 87.1148746,7.92639331 L87.1148746,7.92639331 Z" id="Fill-8"></path>
                    <path d="M15.1693729,13.0515263 C14.0125209,13.230455 13.5079045,14.6340184 12.6816892,15.377599 C11.8035059,16.2590427 10.0893163,16.2590427 9.02886861,15.711257 C6.96747277,14.548954 6.91550481,12.2045484 6.94111221,10.0317384 C6.94111221,8.14198769 7.7763654,6.17450566 9.43708073,5.32752775 C11.6988168,4.39548538 13.1863056,6.5169634 14.5954659,7.83399572 C16.003873,8.32164967 17.8656817,8.44924634 19.1437923,7.46587199 C19.5527576,6.64456007 19.2484814,5.60985372 18.8651235,4.88313933 C18.2392485,3.5140417 16.8044809,1.96674871 15.4472886,1.444629 C12.6033606,-0.000733314211 8.55061273,-0.000733314211 5.688609,1.444629 C3.52327723,2.58199934 1.75787282,4.88313933 1.20957316,7.18354601 C0.174732859,11.2211741 0.826968447,15.685591 3.87123663,18.5601827 C6.76713251,21.1942473 11.6468489,21.3739093 15.1693729,20.005545 C17.3874258,18.943706 19.3441326,16.5919673 19.4744291,14.0613 C18.8651235,12.3585444 16.6305012,13.127791 15.1693729,13.0515263" id="Fill-9"></path>
                    <path d="M34.0601039,7.00388403 C32.2510163,5.03713532 29.3807278,5.40525905 27.1717128,6.17450566 C25.058349,5.60985372 26.2844916,2.73599532 25.3543404,1.23930102 C24.1974884,0.204594665 21.6051155,0.101930675 20.6742112,1.49596099 C20.1786326,6.02050967 20.526592,10.8530503 20.4045803,15.5323283 C20.6568885,16.9344251 20.1010573,18.7647774 21.3091241,19.7224857 C22.5360199,20.2614717 24.1274446,20.159541 25.3370178,19.4922251 C26.1368725,17.2944824 25.6578635,14.5218213 25.9892534,12.093818 L26.8410761,10.5201257 C27.3720531,10.2114004 28.0242886,9.92907442 28.6765242,10.2114004 C30.7379201,11.3238381 29.9373122,14.0349007 30.1112919,16.1307127 C30.1376525,17.4741443 29.9373122,18.9187733 31.0421963,19.7994837 C32.0770366,20.0818097 33.102839,20.133875 34.2167609,19.9278137 C34.8946039,19.7224857 35.3992204,18.9708386 35.4692641,18.2778567 C35.3208918,14.44629 36.3564853,9.98040642 34.0601039,7.00388403" id="Fill-10"></path>
                    <path d="M39.365355,7.00388403 C36.9303924,8.79243739 36.1998283,11.683162 36.5997556,14.6853504 C37.0516509,17.0370891 38.8870991,19.4152271 41.2098411,19.979879 C44.5493476,20.7835914 48.7233541,20.6545281 50.8367179,17.576075 C51.1153866,17.0121564 51.046096,16.2077107 50.3848225,15.8483867 C48.628456,14.9163444 46.9142664,16.1050467 45.3838476,16.7466966 C44.4273358,17.0884211 43.3224518,16.8229613 42.7402599,15.9503174 C42.4096232,15.326267 42.7402599,14.548954 43.366135,14.3428927 C46.2371766,13.5472467 49.306299,15.7963214 51.7246922,13.7525747 C52.5765149,11.8877567 51.6463637,9.98040642 50.7418198,8.47564565 C48.0711185,5.01146932 42.6355709,4.60081336 39.365355,7.00388403 L39.365355,7.00388403 Z M45.7589207,10.8017183 C45.1315394,11.2981721 44.0447311,11.606164 43.2968443,11.0327123 C42.7138994,10.8530503 42.7402599,10.1344024 42.939847,9.74134598 C43.5664752,8.94570006 45.1315394,8.94570006 45.7061996,9.66434799 C45.8101355,9.98040642 46.0624437,10.4423944 45.7589207,10.8017183 L45.7589207,10.8017183 Z" id="Fill-11"></path>
                    <path d="M67.519187,6.41429941 C66.1619947,5.48152373 64.2745785,6.02050967 62.9181394,6.4399654 C60.5961506,5.63551971 57.151955,4.85747334 55.1425272,6.92761935 C53.4290907,8.52697765 52.8981137,10.7511197 53.0291634,13.1798563 C53.0547708,14.7110164 53.5593872,16.157112 54.5166521,17.319415 C55.0378381,17.961065 55.6900737,18.5601827 56.4733589,18.9708386 C58.0120625,20.0818097 59.9695224,19.2604978 61.6573514,19.0471033 C62.2568659,19.1505006 62.735875,19.877215 62.413523,20.5269314 C62.0309182,21.398842 61.1000139,21.8439637 60.2225838,21.6386357 C58.7170192,20.5525974 56.3769546,20.5269314 54.7169924,21.3482433 C54.5859428,21.8439637 54.3856025,22.3059517 54.7169924,22.8273381 C54.9165795,23.0070001 55.0905592,23.1617294 55.2645389,23.3413913 C57.9872082,25.4885354 62.0572788,25.1284781 65.1007938,24.1964357 C66.5355615,23.52032 67.5711549,22.0236257 67.8498237,20.5269314 C68.2233905,16.3353074 68.2753585,11.785826 68.0757714,7.46587199 L67.519187,6.41429941 L67.519187,6.41429941 Z M61.4826186,15.043941 C60.830383,15.4039983 60.1261795,15.2500023 59.464906,14.9163444 C58.8653915,14.2394954 58.3871356,13.4702487 58.4903184,12.4098764 C58.4134962,11.529166 58.787063,10.8273843 59.3692548,10.2114004 C60.0734583,9.63868199 61.3003541,9.561684 61.9616276,10.3140644 C62.5618953,10.9300483 62.735875,11.734494 62.8134503,12.5895384 C62.735875,13.5472467 62.309587,14.548954 61.4826186,15.043941 L61.4826186,15.043941 Z" id="Fill-12"></path>
                    <path d="M83.617958,6.41429941 C82.2607657,5.48152373 80.3741027,6.02050967 79.0169104,6.4399654 C76.7032063,5.63551971 73.250726,4.85747334 71.2420513,6.92761935 C69.5278617,8.52697765 68.9968847,10.7511197 69.1279343,13.1798563 C69.1542949,14.7110164 69.6589114,16.157112 70.6154231,17.319415 C71.1373622,17.961065 71.7895978,18.5601827 72.5721299,18.9708386 C74.1123398,20.0818097 76.0690466,19.2604978 77.7553693,19.0471033 C78.3563901,19.1505006 78.8346459,19.877215 78.5122939,20.5269314 C78.1296892,21.398842 77.199538,21.8439637 76.3198485,21.6386357 C74.8157902,20.5525974 72.4757256,20.5269314 70.8157634,21.3482433 C70.6847137,21.8439637 70.4851266,22.3059517 70.8157634,22.8273381 C71.0153505,23.0070001 71.1893302,23.1617294 71.3633099,23.3413913 C74.0859792,25.4885354 78.156803,25.1284781 81.2010711,24.1964357 C82.6350856,23.52032 83.6699259,22.0236257 83.9485947,20.5269314 C84.3221615,16.3353074 84.3748826,11.785826 84.1745424,7.46587199 L83.617958,6.41429941 L83.617958,6.41429941 Z M77.5813896,15.043941 C76.929154,15.4039983 76.2249504,15.2500023 75.5644301,14.9163444 C74.9641625,14.2394954 74.4859066,13.4702487 74.5898425,12.4098764 C74.5122672,11.529166 74.885834,10.8273843 75.4687789,10.2114004 C76.1722293,9.63868199 77.4074099,9.561684 78.0596455,10.3140644 C78.6606662,10.9300483 78.8346459,11.734494 78.9129745,12.5895384 C78.8346459,13.5472467 78.4076049,14.548954 77.5813896,15.043941 L77.5813896,15.043941 Z" id="Fill-13"></path>
                </g>
            </g>
        </g>
    </g>
</svg>